<?xml version="1.0" encoding="utf-8"?>
<!-- Generator: Adobe Illustrator 23.0.1, SVG Export Plug-In . SVG Version: 6.00 Build 0)  -->
<svg version="1.1" id="Layer_1" xmlns="http://www.w3.org/2000/svg" xmlns:xlink="http://www.w3.org/1999/xlink" x="0px" y="0px"
	 viewBox="0 0 454 313" style="enable-background:new 0 0 454 313;" xml:space="preserve">
<style type="text/css">
	.st0{fill:#FFFFFF;}
</style>
<path class="st0" d="M326.1,0H145.17c-10.22,0-18.5,8.21-18.5,18.34v179.32c0,10.13,8.28,18.34,18.5,18.34H326.1
	c10.22,0,18.5-8.21,18.5-18.34V18.34C344.6,8.21,336.32,0,326.1,0z M194.11,62.8c17.1,0,30.96,13.74,30.96,30.69
	s-13.86,30.69-30.96,30.69s-30.96-13.74-30.96-30.69S177.01,62.8,194.11,62.8z M308.12,169.14c0,4.34-3.55,7.85-7.92,7.85H171.07
	c-4.37,0-7.92-3.51-7.92-7.85v0c0-4.34,3.55-7.85,7.92-7.85H300.2C304.57,161.29,308.12,164.8,308.12,169.14L308.12,169.14z
	 M277.16,124.18c-17.1,0-30.96-13.74-30.96-30.69s13.86-30.69,30.96-30.69s30.96,13.74,30.96,30.69S294.26,124.18,277.16,124.18z"/>
</svg>
