<?xml version="1.0" encoding="utf-8"?>
<!-- Generator: Adobe Illustrator 23.0.1, SVG Export Plug-In . SVG Version: 6.00 Build 0)  -->
<svg version="1.1" xmlns="http://www.w3.org/2000/svg" xmlns:xlink="http://www.w3.org/1999/xlink" x="0px" y="0px"
	 viewBox="0 0 828 828" style="enable-background:new 0 0 828 828;" xml:space="preserve">
<style type="text/css">
	.st0{display:none;fill:#2D2D2D;}
	.st1{fill:url(#SVGID_1_);}
	.st2{fill:#FFFFFF;}
</style>
<g id="Layer_1">
	<rect x="-77" y="-66" class="st0" width="982" height="982"/>
	<g>
		<radialGradient id="SVGID_1_" cx="414" cy="414" r="414" gradientUnits="userSpaceOnUse">
			<stop  offset="0" style="stop-color:#FF931E"/>
			<stop  offset="1" style="stop-color:#E94100"/>
		</radialGradient>
		<circle class="st1" cx="414" cy="414" r="414"/>
	</g>
</g>
<g id="Layer_2">
	<path class="st2" d="M602.85,187H225.94c-21.29,0-38.55,17.26-38.55,38.55v376.91c0,21.29,17.26,38.55,38.55,38.55h376.91
		c21.29,0,38.55-17.26,38.55-38.55V225.55C641.4,204.26,624.14,187,602.85,187z M327.9,319c35.62,0,64.5,28.88,64.5,64.5
		S363.52,448,327.9,448s-64.5-28.88-64.5-64.5S292.27,319,327.9,319z M565.4,542.5c0,9.11-7.39,16.5-16.5,16.5h-269
		c-9.11,0-16.5-7.39-16.5-16.5v0c0-9.11,7.39-16.5,16.5-16.5h269C558.01,526,565.4,533.39,565.4,542.5L565.4,542.5z M500.9,448
		c-35.62,0-64.5-28.88-64.5-64.5s28.88-64.5,64.5-64.5s64.5,28.88,64.5,64.5S536.52,448,500.9,448z"/>
</g>
</svg>
